<svg xmlns="http://www.w3.org/2000/svg" width="512" height="512" viewBox="0 0 512 512"><title>VetConnect Global - Icon</title><path fill="#2b7a9e" d="M256 340c-36 0-66-20-76-50s-5-50 15-70c15-15 35-20 61-20s46 5 61 20c20 20 25 40 15 70s-40 50-76 50"/><ellipse cx="195" cy="175" fill="#2b7a9e" rx="30" ry="38"/><ellipse cx="317" cy="175" fill="#2b7a9e" rx="30" ry="38"/><ellipse cx="148" cy="225" fill="#2b7a9e" rx="28" ry="35"/><ellipse cx="364" cy="225" fill="#2b7a9e" rx="28" ry="35"/><rect width="32" height="70" x="240" y="245" fill="#fff" rx="4"/><rect width="62" height="32" x="225" y="260" fill="#fff" rx="4"/></svg>