<?xml version="1.0" encoding="UTF-8"?>
<!-- Generator: visioncortex VTracer 0.6.4 -->
<svg version="1.1" xmlns="http://www.w3.org/2000/svg" width="1024" height="1024">
<path d="M0 0 C337.92 0 675.84 0 1024 0 C1024 337.92 1024 675.84 1024 1024 C686.08 1024 348.16 1024 0 1024 C0 686.08 0 348.16 0 0 Z " fill="#FEFEFE" transform="translate(0,0)"/>
<path d="M0 0 C1.012 0.003 1.012 0.003 2.044 0.007 C4.106 0.01 6.165 -0.014 8.227 -0.039 C9.519 -0.04 10.812 -0.04 12.145 -0.041 C13.336 -0.044 14.528 -0.047 15.756 -0.05 C16.699 0.073 17.642 0.196 18.613 0.322 C20.749 3.526 20.855 4.318 20.809 7.99 C20.802 8.883 20.796 9.776 20.789 10.695 C20.764 12.088 20.764 12.088 20.738 13.51 C20.729 14.45 20.72 15.391 20.711 16.359 C20.687 18.681 20.654 21.001 20.613 23.322 C21.239 23.312 21.865 23.301 22.509 23.291 C25.336 23.249 28.162 23.223 30.988 23.197 C31.973 23.181 32.958 23.164 33.973 23.146 C34.914 23.14 35.855 23.134 36.824 23.127 C38.128 23.111 38.128 23.111 39.458 23.095 C41.613 23.322 41.613 23.322 43.613 25.322 C43.806 28.658 43.883 31.954 43.828 35.293 C43.929 39.502 44.317 41.035 47.383 44.006 C48.449 44.77 49.515 45.535 50.613 46.322 C53.778 49.857 56.668 53.603 59.613 57.322 C60.547 58.422 60.547 58.422 61.5 59.545 C71.089 71.073 76.58 84.273 75.613 99.322 C74.167 107.209 69.799 114.236 63.613 119.322 C56.759 123.826 50.762 125.602 42.613 124.322 C34.868 122.37 27.592 119.761 20.301 116.51 C8.14 111.73 -5.61 113.193 -17.387 118.322 C-19.135 119.034 -20.885 119.742 -22.637 120.447 C-23.851 120.938 -23.851 120.938 -25.09 121.439 C-33.578 124.702 -41.939 125.86 -50.637 122.635 C-58.178 119.266 -63.288 114.467 -66.469 106.67 C-69.601 95.247 -67.959 83.626 -62.387 73.322 C-61.941 72.39 -61.495 71.458 -61.035 70.498 C-57.493 63.404 -52.824 58.033 -47.387 52.322 C-46.087 50.85 -44.795 49.371 -43.512 47.885 C-40.518 44.422 -40.518 44.422 -38.723 43.068 C-36.604 40.3 -36.931 37.177 -36.887 33.822 C-36.794 26.879 -36.794 26.879 -35.153 24.637 C-32.901 22.961 -31.509 22.899 -28.719 22.811 C-27.826 22.775 -26.933 22.74 -26.014 22.703 C-24.621 22.669 -24.621 22.669 -23.199 22.635 C-22.259 22.601 -21.318 22.566 -20.35 22.531 C-18.029 22.449 -15.708 22.38 -13.387 22.322 C-13.367 21.727 -13.347 21.131 -13.327 20.518 C-13.232 17.827 -13.122 15.137 -13.012 12.447 C-12.981 11.51 -12.95 10.573 -12.918 9.607 C-12.879 8.712 -12.841 7.816 -12.801 6.893 C-12.769 6.065 -12.738 5.238 -12.706 4.385 C-11.756 -1.758 -4.747 0.026 0 0 Z " fill="#01A9A8" transform="translate(509.38671875,470.677734375)"/>
<path d="M0 0 C8.258 4.171 12.45 10.28 15.621 18.777 C18.822 28.576 19.255 41.543 14.645 50.941 C14.02 52.015 14.02 52.015 13.383 53.109 C12.936 53.897 12.488 54.685 12.027 55.496 C7.435 62.945 1.892 68.469 -6.617 71.109 C-13.85 72.326 -19.694 70.306 -25.617 66.109 C-33.295 58.666 -37.578 48.355 -37.961 37.729 C-38.138 26.121 -35.332 16.052 -27.613 7.055 C-19.763 -0.596 -10.72 -3.648 0 0 Z " fill="#02A9A9" transform="translate(489.6171875,396.890625)"/>
<path d="M0 0 C10.752 5.579 15.719 13.872 19.469 25.121 C20.639 38.36 20.231 51.412 11.469 62.121 C5.943 67.612 1.279 71.358 -6.781 71.559 C-13.751 71.399 -18.479 69.01 -23.504 64.254 C-32.519 54.416 -36.217 43.349 -35.816 30 C-34.89 20.647 -31.191 11.107 -24.094 4.746 C-16.766 -0.891 -9.084 -3.154 0 0 Z " fill="#01A8A8" transform="translate(554.53125,396.87890625)"/>
<path d="M0 0 C6.93 0 13.86 0 21 0 C21 7.59 21 15.18 21 23 C28.26 23 35.52 23 43 23 C43 29.93 43 36.86 43 44 C35.74 44 28.48 44 21 44 C21.04 51.195 21.04 51.195 21.09 58.39 C21.093 59.281 21.095 60.172 21.098 61.09 C21.103 62.006 21.108 62.923 21.114 63.867 C21 66 21 66 20 67 C18.511 67.087 17.019 67.107 15.527 67.098 C14.718 67.095 13.908 67.093 13.074 67.09 C12.039 67.081 11.004 67.072 9.938 67.062 C6.658 67.042 3.379 67.021 0 67 C0 59.41 0 51.82 0 44 C-7.59 44 -15.18 44 -23 44 C-23 37.07 -23 30.14 -23 23 C-15.41 23 -7.82 23 0 23 C0 15.41 0 7.82 0 0 Z " fill="#FAFDFD" transform="translate(503,477)"/>
<path d="M0 0 C7.311 5.199 11.279 11.145 12.812 20 C14.285 32.135 8.794 41.983 1.977 51.586 C-2.269 56.322 -8.52 59.25 -14.727 60.52 C-20.055 60.767 -24.049 59.331 -28.188 56 C-34.699 49.489 -36.497 43.207 -36.688 34.25 C-36.637 23.836 -32.972 14.972 -26.262 6.98 C-18.657 -0.281 -10.104 -3.17 0 0 Z " fill="#03A9A8" transform="translate(604.1875,459)"/>
<path d="M0 0 C8.882 6.095 13.756 15.645 16 26 C16.929 34.541 15.199 42.236 10.387 49.402 C5.873 54.936 2.355 56.609 -4.75 57.438 C-12.007 57.256 -18.765 52.721 -24 48 C-25.949 45.23 -25.949 45.23 -27.688 42.188 C-28.269 41.191 -28.85 40.195 -29.449 39.168 C-33.762 30.358 -34.438 20.579 -32.348 11.016 C-29.901 4.084 -25.871 0.183 -19.562 -3.375 C-12.03 -5.212 -6.604 -3.738 0 0 Z " fill="#02A9A8" transform="translate(443,462)"/>
<path d="M0 0 C1.012 0.003 1.012 0.003 2.044 0.007 C4.106 0.01 6.165 -0.014 8.227 -0.039 C9.519 -0.04 10.812 -0.04 12.145 -0.041 C13.336 -0.044 14.528 -0.047 15.756 -0.05 C16.699 0.073 17.642 0.196 18.613 0.322 C20.749 3.526 20.855 4.318 20.809 7.99 C20.802 8.883 20.796 9.776 20.789 10.695 C20.764 12.088 20.764 12.088 20.738 13.51 C20.729 14.45 20.72 15.391 20.711 16.359 C20.687 18.681 20.654 21.001 20.613 23.322 C21.239 23.312 21.865 23.301 22.509 23.291 C25.336 23.249 28.162 23.223 30.988 23.197 C31.973 23.181 32.958 23.164 33.973 23.146 C34.914 23.14 35.855 23.134 36.824 23.127 C38.128 23.111 38.128 23.111 39.458 23.095 C41.613 23.322 41.613 23.322 43.613 25.322 C43.806 28.658 43.883 31.954 43.828 35.293 C43.898 38.2 43.979 40.588 45.932 42.85 C47.44 44.075 49.025 45.203 50.613 46.322 C52.488 49.135 52.488 49.135 53.613 51.322 C48.913 49.092 45.238 46.95 42.613 42.322 C41.46 36.748 41.569 30.991 41.613 25.322 C40.623 25.322 39.633 25.322 38.613 25.322 C38.619 26.034 38.624 26.745 38.629 27.478 C38.65 30.697 38.663 33.916 38.676 37.135 C38.684 38.254 38.693 39.374 38.701 40.527 C38.704 41.6 38.708 42.674 38.711 43.779 C38.716 44.769 38.721 45.759 38.727 46.779 C38.613 49.322 38.613 49.322 37.613 52.322 C27.218 52.817 27.218 52.817 16.613 53.322 C16.283 59.262 15.953 65.202 15.613 71.322 C15.283 71.322 14.953 71.322 14.613 71.322 C14.613 64.392 14.613 57.462 14.613 50.322 C21.873 50.322 29.133 50.322 36.613 50.322 C36.613 43.392 36.613 36.462 36.613 29.322 C29.353 29.322 22.093 29.322 14.613 29.322 C14.613 21.732 14.613 14.142 14.613 6.322 C7.683 6.322 0.753 6.322 -6.387 6.322 C-6.387 13.912 -6.387 21.502 -6.387 29.322 C-13.977 29.322 -21.567 29.322 -29.387 29.322 C-29.387 35.592 -29.387 41.862 -29.387 48.322 C-29.717 48.322 -30.047 48.322 -30.387 48.322 C-30.387 41.722 -30.387 35.122 -30.387 28.322 C-26.199 27.275 -22.408 27.211 -18.137 27.26 C-17.392 27.264 -16.647 27.269 -15.879 27.273 C-14.048 27.285 -12.217 27.303 -10.387 27.322 C-10.882 26.332 -10.882 26.332 -11.387 25.322 C-14.866 25.293 -18.345 25.276 -21.824 25.26 C-22.817 25.251 -23.811 25.243 -24.834 25.234 C-25.778 25.231 -26.722 25.228 -27.695 25.225 C-28.57 25.219 -29.444 25.214 -30.345 25.209 C-32.381 25.094 -32.381 25.094 -33.387 26.322 C-33.624 29.445 -33.782 32.559 -33.904 35.688 C-34.252 42.391 -34.252 42.391 -36.387 45.322 C-37.872 45.817 -37.872 45.817 -39.387 46.322 C-39.882 47.168 -40.377 48.014 -40.887 48.885 C-41.382 49.689 -41.877 50.494 -42.387 51.322 C-43.377 51.322 -44.367 51.322 -45.387 51.322 C-45.49 52.106 -45.593 52.89 -45.699 53.697 C-46.387 56.322 -46.387 56.322 -49.387 58.322 C-49.637 61.906 -49.637 61.906 -49.387 65.322 C-50.047 64.662 -50.707 64.002 -51.387 63.322 C-52.377 63.322 -53.367 63.322 -54.387 63.322 C-54.882 64.312 -54.882 64.312 -55.387 65.322 C-56.047 64.992 -56.707 64.662 -57.387 64.322 C-51.374 56.128 -44.573 48.509 -37.387 41.322 C-37.184 38.17 -37.04 35.026 -36.957 31.869 C-36.719 26.776 -36.719 26.776 -35.149 24.633 C-32.9 22.96 -31.505 22.899 -28.719 22.811 C-27.826 22.775 -26.933 22.74 -26.014 22.703 C-24.621 22.669 -24.621 22.669 -23.199 22.635 C-22.259 22.601 -21.318 22.566 -20.35 22.531 C-18.029 22.449 -15.708 22.38 -13.387 22.322 C-13.367 21.727 -13.347 21.131 -13.327 20.518 C-13.232 17.827 -13.122 15.137 -13.012 12.447 C-12.981 11.51 -12.95 10.573 -12.918 9.607 C-12.879 8.712 -12.841 7.816 -12.801 6.893 C-12.769 6.065 -12.738 5.238 -12.706 4.385 C-11.756 -1.758 -4.747 0.026 0 0 Z " fill="#10A39C" transform="translate(509.38671875,470.677734375)"/>
<path d="M0 0 C8.908 8.122 16.426 20.529 17.168 32.77 C17.228 42.185 15.859 49.437 10 57 C9.01 57.66 8.02 58.32 7 59 C7.309 58.278 7.619 57.556 7.938 56.812 C10.912 48.939 10.323 41.034 9.023 32.848 C9.016 32.238 9.008 31.628 9 31 C9.66 30.34 10.32 29.68 11 29 C10.834 25.992 10.834 25.992 10.188 22.625 C9.995 21.483 9.803 20.341 9.605 19.164 C9.143 16.745 8.638 14.377 8 12 C7.01 12 6.02 12 5 12 C5 10.35 5 8.7 5 7 C3.68 6.67 2.36 6.34 1 6 C0.67 4.02 0.34 2.04 0 0 Z " fill="#07AAA9" transform="translate(568,528)"/>
<path d="M0 0 C3.292 -0.058 6.583 -0.094 9.875 -0.125 C10.812 -0.142 11.749 -0.159 12.715 -0.176 C13.611 -0.182 14.507 -0.189 15.43 -0.195 C16.257 -0.206 17.085 -0.216 17.937 -0.227 C20 0 20 0 22 2 C22.193 5.335 22.269 8.631 22.215 11.971 C22.285 14.877 22.366 17.266 24.319 19.528 C25.827 20.752 27.412 21.881 29 23 C30.875 25.812 30.875 25.812 32 28 C27.3 25.769 23.625 23.627 21 19 C19.846 13.426 19.955 7.668 20 2 C19.01 2 18.02 2 17 2 C17.008 3.067 17.008 3.067 17.016 4.156 C17.037 7.375 17.05 10.593 17.062 13.812 C17.071 14.932 17.079 16.052 17.088 17.205 C17.093 18.815 17.093 18.815 17.098 20.457 C17.106 21.942 17.106 21.942 17.114 23.456 C17 26 17 26 16 29 C5.605 29.495 5.605 29.495 -5 30 C-5.33 35.94 -5.66 41.88 -6 48 C-6.33 48 -6.66 48 -7 48 C-7 41.07 -7 34.14 -7 27 C0.26 27 7.52 27 15 27 C15 20.07 15 13.14 15 6 C13.35 6 11.7 6 10 6 C10.33 4.68 10.66 3.36 11 2 C7.37 1.67 3.74 1.34 0 1 C0 0.67 0 0.34 0 0 Z " fill="#25A4A0" transform="translate(531,494)"/>
<path d="M0 0 C1.65 0 3.3 0 5 0 C5.33 0.66 5.66 1.32 6 2 C5.35 2.623 5.35 2.623 4.688 3.258 C-0.323 8.802 -0.659 13.369 -0.344 20.699 C0.042 24.402 0.678 27.53 2 31 C2.66 30.67 3.32 30.34 4 30 C4.124 31.134 4.247 32.269 4.375 33.438 C4.581 34.613 4.788 35.789 5 37 C5.66 37.33 6.32 37.66 7 38 C7.247 38.949 7.495 39.897 7.75 40.875 C8.745 44.275 8.745 44.275 12.125 45.875 C13.074 46.246 14.023 46.618 15 47 C15 47.66 15 48.32 15 49 C16.641 49.239 18.283 49.477 19.926 49.703 C21.322 49.903 22.715 50.122 24.105 50.359 C28.193 51.004 30.446 51.083 34 49 C36.75 48.875 36.75 48.875 39 49 C36.055 52.41 32.858 53.733 28.422 54.371 C20.332 54.572 14.939 52.728 9.027 47.133 C-0.002 37.279 -3.622 26.268 -3.305 12.914 C-2.832 8.397 -1.578 4.245 0 0 Z " fill="#2AA09F" transform="translate(522,414)"/>
<path d="M0 0 C1.918 0.186 1.918 0.186 3.875 0.375 C7 1 7 1 10.062 2.625 C13.561 4.263 15.326 3.962 19 3 C19.495 4.98 19.495 4.98 20 7 C32.817 11.165 41.93 11.035 54 5 C52.621 8.401 51.397 9.73 48.062 11.25 C37.06 15.634 26.564 11.992 16 8 C13.896 7.063 11.791 6.126 9.688 5.188 C-0.927 0.968 -13.192 1.931 -24 5 C-24 4.34 -24 3.68 -24 3 C-15.475 -0.845 -9.292 -0.988 0 0 Z " fill="#2BA6A0" transform="translate(520,582)"/>
<path d="M0 0 C1.277 3.832 0.416 5.179 -0.938 8.938 C-3.584 17.227 -4.693 24.862 -1.062 33 C-0.523 34.021 -0.523 34.021 0.027 35.062 C1.015 37.031 1.545 38.852 2 41 C2.99 41 3.98 41 5 41 C5 41.66 5 42.32 5 43 C5.99 43 6.98 43 8 43 C8 43.66 8 44.32 8 45 C8.66 45 9.32 45 10 45 C10 45.66 10 46.32 10 47 C18.577 48.596 27.431 48.624 36 47 C36.33 45.68 36.66 44.36 37 43 C40.3 43 43.6 43 47 43 C39.696 48.478 28.549 51.982 19.305 51.422 C10.65 49.838 4.091 46.036 -1.25 39.062 C-4.595 33.209 -5.415 27.99 -5.438 21.375 C-5.441 20.588 -5.445 19.8 -5.449 18.989 C-5.309 11.807 -3.474 6.327 0 0 Z " fill="#2DA2A1" transform="translate(447,544)"/>
<path d="M0 0 C9.731 5.509 14.674 14.686 17.652 25.133 C19.466 33.503 17.382 40.476 14.098 48.188 C13.768 48.188 13.438 48.188 13.098 48.188 C13.973 41.312 13.973 41.312 15.098 40.188 C15.418 33.153 15.418 26.117 14.098 19.188 C13.438 19.188 12.778 19.188 12.098 19.188 C12.098 18.197 12.098 17.207 12.098 16.188 C11.438 16.188 10.778 16.188 10.098 16.188 C9.891 15.28 9.685 14.373 9.473 13.438 C7.767 9.406 5.717 8.498 2.098 6.188 C1.85 5.136 1.85 5.136 1.598 4.062 C1.35 3.134 1.35 3.134 1.098 2.188 C-4.094 -0.545 -10.182 -0.492 -15.902 0.188 C-19.57 1.453 -22.208 3.1 -24.34 6.438 C-24.525 7.015 -24.711 7.592 -24.902 8.188 C-25.562 7.858 -26.222 7.527 -26.902 7.188 C-25.089 2.571 -21.869 0.25 -17.59 -2.062 C-10.961 -3.913 -6.039 -2.983 0 0 Z " fill="#25A6A0" transform="translate(440.90234375,460.8125)"/>
<path d="M0 0 C0.66 0 1.32 0 2 0 C2 5.61 2 11.22 2 17 C6.997 16.555 6.997 16.555 11.991 16.072 C16.8 15.707 19.825 16.302 24 19 C27.016 23.799 26.399 29.607 25.5 35 C25.253 35.99 25.253 35.99 25 37 C26.485 37.495 26.485 37.495 28 38 C28.33 39.65 28.66 41.3 29 43 C28.34 42.67 27.68 42.34 27 42 C27 41.34 27 40.68 27 40 C26.354 39.836 25.708 39.673 25.043 39.504 C23 38 23 38 22.426 34.34 C22.369 32.873 22.332 31.405 22.312 29.938 C22.623 25.08 22.623 25.08 21 21 C19.441 20.843 17.875 20.749 16.309 20.684 C15.364 20.642 14.42 20.6 13.447 20.557 C12.454 20.517 11.461 20.478 10.438 20.438 C9.44 20.394 8.443 20.351 7.416 20.307 C4.944 20.2 2.472 20.1 0 20 C0 13.4 0 6.8 0 0 Z " fill="#CFF8F9" transform="translate(530,474)"/>
<path d="M0 0 C0.99 0.495 0.99 0.495 2 1 C2 6.94 2 12.88 2 19 C4.31 19 6.62 19 9 19 C11.438 19.5 11.438 19.5 13 20 C13.33 19.34 13.66 18.68 14 18 C15.65 18.33 17.3 18.66 19 19 C18.505 9.595 18.505 9.595 18 0 C18.99 0 19.98 0 21 0 C21.029 3.646 21.047 7.292 21.062 10.938 C21.071 11.978 21.079 13.019 21.088 14.092 C21.093 15.576 21.093 15.576 21.098 17.09 C21.106 18.465 21.106 18.465 21.114 19.867 C21 22 21 22 20 23 C18.511 23.087 17.019 23.107 15.527 23.098 C14.718 23.095 13.908 23.093 13.074 23.09 C12.039 23.081 11.004 23.072 9.938 23.062 C6.658 23.042 3.379 23.021 0 23 C0 15.41 0 7.82 0 0 Z " fill="#C4F1F1" transform="translate(503,521)"/>
<path d="M0 0 C7.59 0 15.18 0 23 0 C23 0.66 23 1.32 23 2 C16.73 2 10.46 2 4 2 C4 3.98 4 5.96 4 8 C4 8.66 4 9.32 4 10 C4.041 10.784 4.082 11.567 4.125 12.375 C4 15 4 15 2 19 C8.6 19 15.2 19 22 19 C22.33 19.66 22.66 20.32 23 21 C15.41 21 7.82 21 0 21 C0 14.07 0 7.14 0 0 Z " fill="#C9F5F5" transform="translate(480,500)"/>
<path d="M0 0 C1.98 0.66 3.96 1.32 6 2 C6.33 3.98 6.66 5.96 7 8 C7.66 8 8.32 8 9 8 C11 11 11 11 11 14 C12.423 14.433 12.423 14.433 13.875 14.875 C17 16 17 16 19 18 C21.76 18.359 21.76 18.359 24.875 18.312 C26.449 18.338 26.449 18.338 28.055 18.363 C31.306 17.962 32.694 17.29 35 15 C35 14.34 35 13.68 35 13 C37.64 12.34 40.28 11.68 43 11 C38.753 17.028 34.082 20.048 26.77 21.418 C20.392 21.836 15.149 19.668 10 16 C5.336 11.318 2.237 6.184 0 0 Z " fill="#2EA5A3" transform="translate(454,447)"/>
<path d="M0 0 C0.99 0.33 1.98 0.66 3 1 C3.049 1.771 3.098 2.542 3.148 3.336 C3.223 4.339 3.298 5.342 3.375 6.375 C3.445 7.373 3.514 8.37 3.586 9.398 C3.764 12.155 3.764 12.155 6 14 C8.856 14.383 11.689 14.507 14.566 14.656 C15.369 14.77 16.173 14.883 17 15 C17.33 15.66 17.66 16.32 18 17 C17.67 17.66 17.34 18.32 17 19 C14.354 19.027 11.708 19.047 9.062 19.062 C8.308 19.071 7.553 19.079 6.775 19.088 C4.85 19.097 2.925 19.052 1 19 C0 18 0 18 -0.114 16.234 C-0.108 15.485 -0.103 14.736 -0.098 13.965 C-0.094 13.156 -0.091 12.347 -0.088 11.514 C-0.08 10.664 -0.071 9.813 -0.062 8.938 C-0.058 8.083 -0.053 7.229 -0.049 6.35 C-0.037 4.233 -0.019 2.117 0 0 Z " fill="#05A9A7" transform="translate(525,480)"/>
<path d="M0 0 C7.26 0 14.52 0 22 0 C22 7.59 22 15.18 22 23 C32.395 22.505 32.395 22.505 43 22 C43 22.66 43 23.32 43 24 C35.74 24 28.48 24 21 24 C20.267 21.069 19.84 18.832 19.684 15.891 C19.626 14.87 19.626 14.87 19.568 13.829 C19.525 12.978 19.482 12.127 19.438 11.25 C19.293 8.528 19.149 5.805 19 3 C12.4 2.67 5.8 2.34 -1 2 C-0.67 1.34 -0.34 0.68 0 0 Z " fill="#28A2A2" transform="translate(481,521)"/>
<path d="M0 0 C0.577 0.206 1.155 0.413 1.75 0.625 C0.296 1.027 0.296 1.027 -1.188 1.438 C-2.198 1.829 -3.209 2.221 -4.25 2.625 C-4.58 3.615 -4.91 4.605 -5.25 5.625 C-7.75 6.75 -7.75 6.75 -10.25 7.625 C-10.58 7.955 -10.91 8.285 -11.25 8.625 C-13.323 8.713 -15.398 8.732 -17.473 8.723 C-18.733 8.719 -19.993 8.716 -21.291 8.713 C-22.632 8.705 -23.972 8.696 -25.312 8.688 C-26.657 8.682 -28.001 8.678 -29.346 8.674 C-32.647 8.662 -35.949 8.646 -39.25 8.625 C-39.58 7.965 -39.91 7.305 -40.25 6.625 C-41.894 5.903 -43.561 5.231 -45.25 4.625 C-45.25 3.635 -45.25 2.645 -45.25 1.625 C-44.59 1.893 -43.93 2.161 -43.25 2.438 C-41.765 3.025 -41.765 3.025 -40.25 3.625 C-39.669 3.889 -39.087 4.154 -38.488 4.426 C-27.243 9.239 -17.164 5.6 -6.25 1.625 C-5.479 1.233 -4.708 0.841 -3.914 0.438 C-2.25 -0.375 -2.25 -0.375 0 0 Z " fill="#D2FAFA" transform="translate(496.25,587.375)"/>
<path d="M0 0 C6.93 0 13.86 0 21 0 C21 7.59 21 15.18 21 23 C20.67 23 20.34 23 20 23 C19.505 13.1 19.505 13.1 19 3 C13.39 2.67 7.78 2.34 2 2 C2 8.6 2 15.2 2 22 C1.34 22.33 0.68 22.66 0 23 C0 15.41 0 7.82 0 0 Z " fill="#A6E7E7" transform="translate(503,477)"/>
<path d="M0 0 C0.99 0.33 1.98 0.66 3 1 C1.991 2.693 0.982 4.385 -0.027 6.078 C-3.54 13.02 -3.043 22.881 -1.176 30.254 C-0.21 32.892 0.843 35.441 2 38 C2.672 39.664 3.341 41.33 4 43 C0.698 41.459 -1.317 40.266 -3.066 37.023 C-5.214 30.487 -5.272 23.876 -5.312 17.062 C-5.318 16.138 -5.324 15.214 -5.33 14.262 C-5.282 9.892 -5.212 6.861 -3 3 C-2.34 3 -1.68 3 -1 3 C-0.67 2.01 -0.34 1.02 0 0 Z " fill="#D4FBFB" transform="translate(413,464)"/>
<path d="M0 0 C7.637 5.811 12.449 12.641 15 22 C15.402 25.325 15.421 28.592 15.375 31.938 C15.387 32.78 15.398 33.622 15.41 34.49 C15.382 40.48 14.212 45.444 12 51 C10.805 47.414 11.274 45.511 11.938 41.812 C13.374 32.916 13.605 25.484 10 17 C9.34 16.67 8.68 16.34 8 16 C7.366 13.958 6.982 11.909 6.562 9.812 C6.377 9.214 6.191 8.616 6 8 C5.34 7.67 4.68 7.34 4 7 C4 6.34 4 5.68 4 5 C3.01 4.67 2.02 4.34 1 4 C0.312 1.938 0.312 1.938 0 0 Z " fill="#27A7A1" transform="translate(559,400)"/>
<path d="M0 0 C8.942 8.153 16.45 20.59 17.168 32.875 C17.174 33.906 17.181 34.938 17.188 36 C17.202 37.031 17.216 38.062 17.23 39.125 C17.003 41.965 16.465 43.591 15 46 C14.986 44.924 14.972 43.847 14.957 42.738 C14.713 33.886 13.755 26.808 10.156 18.637 C9.178 16.405 8.497 14.376 8 12 C7.01 12 6.02 12 5 12 C5 10.35 5 8.7 5 7 C3.68 6.67 2.36 6.34 1 6 C0.67 4.02 0.34 2.04 0 0 Z " fill="#2FA7A3" transform="translate(568,528)"/>
<path d="M0 0 C0.33 1.32 0.66 2.64 1 4 C0.196 4.454 -0.609 4.908 -1.438 5.375 C-4.089 6.747 -4.089 6.747 -5 9 C-4.34 9 -3.68 9 -3 9 C-3 9.66 -3 10.32 -3 11 C-5.793 10.886 -8.583 10.76 -11.375 10.625 C-12.169 10.594 -12.963 10.563 -13.781 10.531 C-19.773 10.227 -19.773 10.227 -22 8 C-22.825 8 -23.65 8 -24.5 8 C-25.325 8 -26.15 8 -27 8 C-27.66 7.34 -28.32 6.68 -29 6 C-29 5.01 -29 4.02 -29 3 C-23.25 4.875 -23.25 4.875 -21 6 C-13.785 6.741 -8.05 6.155 -2 2 C-1.34 1.34 -0.68 0.68 0 0 Z " fill="#E0FAF9" transform="translate(563,461)"/>
<path d="M0 0 C0.33 0 0.66 0 1 0 C1 5.94 1 11.88 1 18 C-0.98 18.99 -0.98 18.99 -3 20 C-3.516 20.866 -4.031 21.732 -4.562 22.625 C-5.037 23.409 -5.511 24.192 -6 25 C-6.99 25 -7.98 25 -9 25 C-9.103 25.784 -9.206 26.567 -9.312 27.375 C-10 30 -10 30 -13 32 C-13.25 35.584 -13.25 35.584 -13 39 C-13.66 38.34 -14.32 37.68 -15 37 C-15.99 37 -16.98 37 -18 37 C-18.33 37.66 -18.66 38.32 -19 39 C-19.66 38.67 -20.32 38.34 -21 38 C-14.987 29.806 -8.187 22.187 -1 15 C-0.763 12.474 -0.578 9.969 -0.438 7.438 C-0.394 6.727 -0.351 6.016 -0.307 5.283 C-0.2 3.522 -0.1 1.761 0 0 Z " fill="#27A8A6" transform="translate(473,497)"/>
<path d="M0 0 C0.66 0 1.32 0 2 0 C1.524 2.697 0.949 5.135 -0.02 7.703 C-3.031 17.828 -1.136 29.144 2 39 C0.68 38.67 -0.64 38.34 -2 38 C-4.458 28.168 -6.543 17.025 -4 7 C-3.036 5.64 -2.037 4.305 -1 3 C-0.67 2.01 -0.34 1.02 0 0 Z " fill="#D6FCFD" transform="translate(454,413)"/>
<path d="M0 0 C0.66 0.33 1.32 0.66 2 1 C1.527 1.45 1.054 1.9 0.566 2.363 C-9.647 12.298 -17.895 23.112 -24 36 C-24.688 34.375 -24.688 34.375 -25 32 C-23.75 29.125 -23.75 29.125 -22 26 C-21.443 24.886 -20.886 23.773 -20.312 22.625 C-19.663 21.326 -19.663 21.326 -19 20 C-18.34 20 -17.68 20 -17 20 C-16.711 19.423 -16.423 18.845 -16.125 18.25 C-14.417 14.833 -12.708 11.417 -11 8 C-10.01 8 -9.02 8 -8 8 C-7.67 7.34 -7.34 6.68 -7 6 C-6.34 6 -5.68 6 -5 6 C-4.918 5.381 -4.835 4.763 -4.75 4.125 C-4 2 -4 2 -2.062 0.688 C-1.382 0.461 -0.701 0.234 0 0 Z " fill="#D2FBFC" transform="translate(470,512)"/>
<path d="M0 0 C1.012 0.003 1.012 0.003 2.044 0.007 C4.106 0.01 6.165 -0.014 8.227 -0.039 C9.519 -0.04 10.812 -0.04 12.145 -0.041 C13.336 -0.044 14.528 -0.047 15.756 -0.05 C16.699 0.073 17.642 0.196 18.613 0.322 C20.715 3.475 20.857 4.183 20.809 7.771 C20.802 8.619 20.796 9.467 20.789 10.34 C20.772 11.221 20.756 12.102 20.738 13.01 C20.729 13.902 20.72 14.795 20.711 15.715 C20.687 17.918 20.654 20.12 20.613 22.322 C20.283 22.322 19.953 22.322 19.613 22.322 C19.553 21.286 19.492 20.249 19.43 19.182 C19.345 17.812 19.261 16.442 19.176 15.072 C19.136 14.39 19.097 13.708 19.057 13.006 C18.864 8.055 18.864 8.055 17.613 3.322 C13.625 1.993 9.976 2.138 5.801 2.135 C4.609 2.116 4.609 2.116 3.393 2.098 C-1.26 2.086 -5.029 2.482 -9.387 4.322 C-11.198 6.133 -10.769 8.935 -10.949 11.385 C-11.033 12.489 -11.117 13.594 -11.203 14.732 C-11.264 15.587 -11.324 16.442 -11.387 17.322 C-11.717 17.322 -12.047 17.322 -12.387 17.322 C-12.441 14.864 -12.48 12.406 -12.512 9.947 C-12.528 9.249 -12.545 8.55 -12.562 7.83 C-12.58 5.993 -12.49 4.156 -12.387 2.322 C-9.021 -1.043 -4.572 0.025 0 0 Z " fill="#39A8A3" transform="translate(509.38671875,470.677734375)"/>
<path d="M0 0 C7.26 0 14.52 0 22 0 C22 6.93 22 13.86 22 21 C14.74 21 7.48 21 0 21 C0 20.67 0 20.34 0 20 C6.93 20 13.86 20 21 20 C20.856 17.381 20.711 14.761 20.562 12.062 C20.519 11.236 20.476 10.41 20.432 9.559 C20.538 5.98 20.538 5.98 19 3 C15.389 2.763 11.786 2.603 8.17 2.482 C2.213 2.213 2.213 2.213 0 0 Z " fill="#C6F7F7" transform="translate(524,500)"/>
<path d="M0 0 C0.33 0 0.66 0 1 0 C1.135 1.435 1.232 2.873 1.312 4.312 C1.4 5.513 1.4 5.513 1.488 6.738 C1.327 7.485 1.166 8.231 1 9 C0.206 9.441 -0.588 9.882 -1.406 10.336 C-4.333 11.834 -4.333 11.834 -5.145 15.363 C-5.389 16.676 -5.611 17.993 -5.812 19.312 C-6.046 20.608 -6.279 21.904 -6.52 23.238 C-7.08 26.923 -7.08 26.923 -6.949 30.355 C-7 33 -7 33 -9 35 C-9.747 22.061 -8.427 10.534 0 0 Z " fill="#27A49F" transform="translate(461,405)"/>
<path d="M0 0 C0.33 0 0.66 0 1 0 C1.037 0.967 1.075 1.934 1.113 2.93 C1.509 10.764 2.39 17.552 5 25 C5.348 26.33 5.686 27.662 6 29 C7.65 29.33 9.3 29.66 11 30 C11.33 30.99 11.66 31.98 12 33 C11.67 33.66 11.34 34.32 11 35 C10.01 35 9.02 35 8 35 C6.246 32.621 6.246 32.621 4.438 29.438 C3.838 28.405 3.239 27.372 2.621 26.309 C-0.376 20.191 -1.261 14.912 -1.188 8.125 C-1.181 6.808 -1.175 5.49 -1.168 4.133 C-1 1 -1 1 0 0 Z " fill="#1EA098" transform="translate(411,475)"/>
<path d="M0 0 C1.438 0.115 2.876 0.242 4.312 0.375 C5.513 0.479 5.513 0.479 6.738 0.586 C9 1 9 1 12 3 C13 5.5 13 5.5 14 9 C14.26 9.724 14.521 10.449 14.789 11.195 C17.838 20.057 17.664 28.848 16 38 C15.34 38 14.68 38 14 38 C14.165 36.866 14.33 35.731 14.5 34.562 C15.589 25.453 15.764 16.568 10.418 8.66 C7.385 5.006 4.772 2.157 0 1 C0 0.67 0 0.34 0 0 Z " fill="#C6F5F4" transform="translate(601,458)"/>
<path d="M0 0 C4.136 1.591 7.232 4.605 10 8 C10 8.66 10 9.32 10 10 C10.66 10 11.32 10 12 10 C12.205 10.782 12.41 11.565 12.621 12.371 C12.891 13.383 13.16 14.395 13.438 15.438 C13.704 16.447 13.971 17.456 14.246 18.496 C14.76 20.918 14.76 20.918 16 22 C16.073 24.863 16.092 27.701 16.062 30.562 C16.058 31.369 16.053 32.175 16.049 33.006 C16.037 35.004 16.019 37.002 16 39 C15.01 39.495 15.01 39.495 14 40 C13.986 38.84 13.972 37.68 13.957 36.484 C13.631 23.512 11.837 13.193 2.453 3.523 C1 2 1 2 0 0 Z " fill="#C2F2F3" transform="translate(560,400)"/>
<path d="M0 0 C7.032 -0.122 14.04 0.022 21.062 0.375 C21.8 0.406 22.538 0.437 23.299 0.469 C26.998 0.674 28.851 0.901 32 3 C31.67 3.99 31.34 4.98 31 6 C30.67 5.34 30.34 4.68 30 4 C20.1 4 10.2 4 0 4 C0 2.68 0 1.36 0 0 Z " fill="#C9F5F4" transform="translate(498,468)"/>
<path d="M0 0 C1.98 0 3.96 0 6 0 C3.72 1.754 1.443 3.348 -1 4.875 C-6.596 8.839 -9.171 13.935 -12 20 C-12.33 20 -12.66 20 -13 20 C-13 17.03 -13 14.06 -13 11 C-12.34 11 -11.68 11 -11 11 C-11.33 8.69 -11.66 6.38 -12 4 C-11.01 4 -10.02 4 -9 4 C-9 4.99 -9 5.98 -9 7 C-8.01 7 -7.02 7 -6 7 C-5.34 5.68 -4.68 4.36 -4 3 C-3.01 3 -2.02 3 -1 3 C-0.67 2.01 -0.34 1.02 0 0 Z " fill="#CCF8F9" transform="translate(534,396)"/>
<path d="M0 0 C3 1 3 1 3.914 2.707 C4.266 3.749 4.266 3.749 4.625 4.812 C4.865 5.5 5.105 6.187 5.352 6.895 C8.055 15.672 7.481 23.469 4 32 C2.515 34.802 0.947 37.493 -1 40 C-1.33 40 -1.66 40 -2 40 C-2.188 37.625 -2.188 37.625 -2 35 C-1.01 34.34 -0.02 33.68 1 33 C4.906 26.12 4.853 17.643 4 10 C2.956 6.986 1.685 4.737 0 2 C0 1.34 0 0.68 0 0 Z " fill="#2CA29F" transform="translate(610,466)"/>
<path d="M0 0 C3.206 1.035 6.092 2.305 9 4 C9 4.99 9 5.98 9 7 C9.66 7 10.32 7 11 7 C10.67 7.66 10.34 8.32 10 9 C8.969 8.216 7.938 7.433 6.875 6.625 C1.292 2.675 -4.195 1.088 -11 2 C-14.234 3.283 -14.234 3.283 -17 5 C-18.333 5.667 -19.667 6.333 -21 7 C-20.67 5.68 -20.34 4.36 -20 3 C-19.34 3 -18.68 3 -18 3 C-18 2.34 -18 1.68 -18 1 C-12.745 -2.503 -6.04 -0.88 0 0 Z " fill="#CBF7F8" transform="translate(437,457)"/>
<path d="M0 0 C0.33 0.66 0.66 1.32 1 2 C-1.8 8.02 -5.801 9.786 -11.898 12.086 C-19.136 14.219 -24.363 13.389 -31 10 C-30.67 9.01 -30.34 8.02 -30 7 C-29.196 7.495 -28.391 7.99 -27.562 8.5 C-21.86 10.901 -17.678 11.029 -11.859 8.793 C-4.972 5.568 -4.972 5.568 0 0 Z " fill="#D9FEFD" transform="translate(607,508)"/>
<path d="M0 0 C1.65 0 3.3 0 5 0 C5.33 0.66 5.66 1.32 6 2 C5.578 2.427 5.157 2.853 4.723 3.293 C-0.634 9.406 -0.976 15.058 -1 23 C-1.66 22.67 -2.32 22.34 -3 22 C-3.368 14.067 -2.775 7.465 0 0 Z " fill="#27AAA7" transform="translate(522,414)"/>
<path d="M0 0 C0.845 -0.004 1.691 -0.008 2.562 -0.012 C10.235 0.128 16.238 1.975 23.125 5.438 C19.461 6.513 18.51 6.13 15.125 4.438 C9.139 3.526 3.169 3.158 -2.875 2.875 C-3.745 2.832 -4.615 2.789 -5.512 2.744 C-7.633 2.639 -9.754 2.538 -11.875 2.438 C-7.842 -0.251 -4.743 0.015 0 0 Z " fill="#CAF7F7" transform="translate(512.875,583.5625)"/>
<path d="M0 0 C1.543 1.602 1.543 1.602 1.543 3.602 C0.682 3.281 -0.179 2.96 -1.066 2.629 C-8.656 0.329 -16.151 0.527 -23.27 4.102 C-24.68 4.909 -26.083 5.733 -27.457 6.602 C-27.457 5.612 -27.457 4.622 -27.457 3.602 C-26.467 3.602 -25.477 3.602 -24.457 3.602 C-24.457 2.942 -24.457 2.282 -24.457 1.602 C-17.918 -2.226 -6.795 -3.868 0 0 Z " fill="#CDFBFB" transform="translate(491.45703125,395.3984375)"/>
<path d="M0 0 C4.511 8.421 4.429 20.085 2.211 29.266 C0.622 33.317 -1.318 36.573 -4 40 C-3.459 34.698 -2.204 30.775 0 26 C1.126 22.622 1.133 19.992 1.125 16.438 C1.129 14.703 1.129 14.703 1.133 12.934 C1.202 10.065 1.202 10.065 0 8 C-0.134 5.328 -0.043 2.677 0 0 Z " fill="#26A49D" transform="translate(504,414)"/>
<path d="M0 0 C0.66 0.33 1.32 0.66 2 1 C1.674 1.803 1.348 2.606 1.012 3.434 C-0.216 7.763 -0.257 11.593 -0.188 16.062 C-0.187 16.852 -0.186 17.642 -0.186 18.455 C-0.156 22.428 0.025 26.123 1 30 C-0.98 29.082 -0.98 29.082 -3 27 C-3.557 23.893 -3.419 20.833 -3.312 17.688 C-3.303 16.845 -3.293 16.003 -3.283 15.135 C-3.203 10.665 -2.882 6.397 -2 2 C-1.34 2 -0.68 2 0 2 C0 1.34 0 0.68 0 0 Z " fill="#B9EFF1" transform="translate(443,549)"/>
<path d="M0 0 C0.619 0.33 1.237 0.66 1.875 1 C1.875 1.33 1.875 1.66 1.875 2 C1.151 1.988 0.426 1.977 -0.32 1.965 C-9.578 1.461 -9.578 1.461 -17.688 5.062 C-20.471 7.275 -21.668 7.395 -25.125 7 C-18.194 -0.409 -9.75 -3.12 0 0 Z " fill="#2DABA6" transform="translate(604.125,459)"/>
<path d="M0 0 C3 1 3 1 4.125 2.688 C7.466 11.518 7.35 23.207 4 32 C2.709 28.128 3.023 24.524 3.125 20.5 C3.236 13.227 2.548 6.886 0 0 Z " fill="#C2F5F5" transform="translate(503,411)"/>
<path d="M0 0 C1.584 0.311 3.167 0.624 4.75 0.938 C5.632 1.112 6.513 1.286 7.422 1.465 C8.959 1.784 10.49 2.135 12.004 2.551 C19.645 4.27 26.885 2.952 34 0 C34 2 34 2 32.57 3.602 C28.732 5.69 25.177 5.446 20.875 5.375 C19.601 5.364 19.601 5.364 18.301 5.353 C12.328 5.222 6.388 4.837 1 2 C0.67 1.34 0.34 0.68 0 0 Z " fill="#D1FBFB" transform="translate(538,591)"/>
<path d="M0 0 C5.672 1.835 9.685 5.027 13 10 C13.125 13.188 13.125 13.188 13 16 C12.01 15.67 11.02 15.34 10 15 C9.732 14.072 9.464 13.144 9.188 12.188 C7.664 8.099 5.593 7.32 2 5 C0.625 2.25 0.625 2.25 0 0 Z " fill="#2CAAA4" transform="translate(489,398)"/>
<path d="M0 0 C-3 1 -3 1 -4.855 0.086 C-5.563 -0.272 -6.271 -0.631 -7 -1 C-14.056 -1.929 -19.319 -1.352 -25 3 C-26.466 5.085 -26.466 5.085 -27 7 C-27.66 6.67 -28.32 6.34 -29 6 C-27.187 1.384 -23.966 -0.937 -19.688 -3.25 C-12.044 -5.383 -6.804 -3.528 0 0 Z " fill="#31ABA5" transform="translate(443,462)"/>
<path d="M0 0 C1.98 0.66 3.96 1.32 6 2 C6.33 3.98 6.66 5.96 7 8 C7.66 8 8.32 8 9 8 C11 11 11 11 11 14 C11.99 14.33 12.98 14.66 14 15 C13.01 15.495 13.01 15.495 12 16 C6.971 14.324 4.284 9.539 1.945 4.914 C1.251 3.295 0.619 1.65 0 0 Z " fill="#14A3A0" transform="translate(454,447)"/>
<path d="M0 0 C0.66 0.66 1.32 1.32 2 2 C-3.28 2 -8.56 2 -14 2 C-14.66 3.65 -15.32 5.3 -16 7 C-18.164 7.926 -18.164 7.926 -20.625 8.312 C-21.442 8.453 -22.26 8.594 -23.102 8.738 C-23.728 8.825 -24.355 8.911 -25 9 C-17.532 0.853 -11.132 -1.339 0 0 Z " fill="#29A7A3" transform="translate(487,396)"/>
<path d="M0 0 C3 0 3 0 4.5 1.434 C10.311 9.197 12.24 16.419 13 26 C11.174 22.503 9.695 18.894 8.188 15.25 C5.903 9.81 3.32 4.882 0 0 Z " fill="#D5FAFA" transform="translate(572,532)"/>
<path d="M0 0 C0.33 0 0.66 0 1 0 C1 2.64 1 5.28 1 8 C0.369 7.995 -0.262 7.99 -0.912 7.984 C-3.754 7.963 -6.596 7.95 -9.438 7.938 C-10.431 7.929 -11.424 7.921 -12.447 7.912 C-13.392 7.909 -14.336 7.906 -15.309 7.902 C-16.183 7.897 -17.058 7.892 -17.959 7.886 C-19.994 7.772 -19.994 7.772 -21 9 C-21.237 11.526 -21.422 14.031 -21.562 16.562 C-21.606 17.273 -21.649 17.984 -21.693 18.717 C-21.8 20.478 -21.9 22.239 -22 24 C-22.33 24 -22.66 24 -23 24 C-23.054 21.375 -23.094 18.751 -23.125 16.125 C-23.142 15.379 -23.159 14.632 -23.176 13.863 C-23.193 11.908 -23.103 9.953 -23 8 C-20.561 5.561 -19.786 5.713 -16.43 5.586 C-15.086 5.528 -15.086 5.528 -13.715 5.469 C-12.778 5.438 -11.841 5.407 -10.875 5.375 C-9.93 5.336 -8.985 5.298 -8.012 5.258 C-5.675 5.163 -3.338 5.078 -1 5 C-0.67 3.35 -0.34 1.7 0 0 Z " fill="#169F9A" transform="translate(497,488)"/>
<path d="M0 0 C3.3 0 6.6 0 10 0 C2.229 5.828 -6.393 7.765 -16 7 C-16 6.67 -16 6.34 -16 6 C-15.42 5.939 -14.84 5.879 -14.242 5.816 C-9.799 5.34 -5.401 4.79 -1 4 C-0.67 2.68 -0.34 1.36 0 0 Z " fill="#1AA19B" transform="translate(484,587)"/>
<path d="M0 0 C0.66 0 1.32 0 2 0 C6.218 4.444 5.479 9.206 5.438 15 C5.457 15.998 5.477 16.995 5.498 18.023 C5.493 25.346 5.493 25.346 2.973 28.688 C2.322 29.121 1.671 29.554 1 30 C1.144 29.466 1.289 28.933 1.438 28.383 C3.977 18.188 3.187 9.977 0 0 Z " fill="#CCFAFA" transform="translate(455,477)"/>
<path d="M0 0 C0.66 1.32 1.32 2.64 2 4 C-0.671 5.781 -3.042 6.832 -6 8 C-6.33 8.33 -6.66 8.66 -7 9 C-9.697 9.073 -12.367 9.092 -15.062 9.062 C-16.2 9.056 -16.2 9.056 -17.361 9.049 C-19.241 9.037 -21.12 9.019 -23 9 C-23.33 8.34 -23.66 7.68 -24 7 C-23.25 7.058 -22.5 7.116 -21.727 7.176 C-13.927 7.52 -8.55 6.306 -2 2 C-1.34 1.34 -0.68 0.68 0 0 Z " fill="#BFF4F4" transform="translate(495,460)"/>
<path d="M0 0 C2 1 2 1 2.605 2.777 C4.123 11.329 2.364 18.101 -1 26 C-1.33 26 -1.66 26 -2 26 C-1.125 19.125 -1.125 19.125 0 18 C0.086 16.657 0.107 15.31 0.098 13.965 C0.094 13.156 0.091 12.347 0.088 11.514 C0.08 10.664 0.071 9.813 0.062 8.938 C0.056 7.656 0.056 7.656 0.049 6.35 C0.037 4.233 0.019 2.117 0 0 Z " fill="#2BA09C" transform="translate(456,483)"/>
<path d="M0 0 C6.647 1.79 6.647 1.79 8.781 3.062 C11.974 4.411 14.805 4.189 18.25 4.125 C20.145 4.098 20.145 4.098 22.078 4.07 C23.042 4.047 24.007 4.024 25 4 C20.479 7.014 16.348 7.823 11 7 C1.705 3.411 1.705 3.411 0 0 Z " fill="#29A3A0" transform="translate(423,512)"/>
<path d="M0 0 C0.66 0 1.32 0 2 0 C1.977 0.99 1.954 1.98 1.93 3 C1.817 9.978 1.967 16.266 4 23 C4 24.32 4 25.64 4 27 C3.34 27 2.68 27 2 27 C-0.409 21.366 -0.231 16.131 -0.125 10.125 C-0.116 9.15 -0.107 8.176 -0.098 7.172 C-0.074 4.781 -0.041 2.391 0 0 Z " fill="#CEFAFA" transform="translate(518,421)"/>
<path d="M0 0 C1.603 0.153 1.603 0.153 3.238 0.309 C4.451 0.434 4.451 0.434 5.688 0.562 C5.688 0.893 5.688 1.222 5.688 1.562 C4.625 1.684 3.563 1.805 2.469 1.93 C-4.586 2.758 -11.473 3.568 -18.312 5.562 C-18.312 4.903 -18.312 4.242 -18.312 3.562 C-11.888 0.665 -7.149 -0.707 0 0 Z " fill="#16A59C" transform="translate(514.3125,581.4375)"/>
<path d="M0 0 C5.75 1.875 5.75 1.875 8 3 C9.769 3.097 11.541 3.13 13.312 3.125 C14.257 3.128 15.202 3.13 16.176 3.133 C18.886 3.005 21.36 2.606 24 2 C24 2.66 24 3.32 24 4 C20.347 5.827 16.022 5.185 12 5.188 C10.608 5.206 10.608 5.206 9.188 5.225 C8.301 5.227 7.414 5.228 6.5 5.23 C5.278 5.237 5.278 5.237 4.031 5.243 C2 5 2 5 0 3 C0 2.01 0 1.02 0 0 Z " fill="#BBF6F6" transform="translate(534,464)"/>
<path d="M0 0 C0.793 2.318 1.098 3.646 0.434 6.035 C-1.408 9.784 -2.552 11.704 -6.125 14.062 C-9 15 -9 15 -11 14 C-10.299 13.361 -9.597 12.721 -8.875 12.062 C-5.284 8.502 -2.696 4.252 0 0 Z " fill="#C4F4F4" transform="translate(583,576)"/>
<path d="M0 0 C6.875 2.75 6.875 2.75 8 5 C11.276 5.47 11.276 5.47 15.062 5.625 C16.998 5.737 16.998 5.737 18.973 5.852 C20.471 5.925 20.471 5.925 22 6 C22 6.33 22 6.66 22 7 C19.73 7.195 17.459 7.381 15.188 7.562 C13.923 7.667 12.658 7.771 11.355 7.879 C8 8 8 8 5 7 C5 6.34 5 5.68 5 5 C4.01 5 3.02 5 2 5 C1.34 3.35 0.68 1.7 0 0 Z " fill="#EBFEFD" transform="translate(464,463)"/>
<path d="M0 0 C0.33 0 0.66 0 1 0 C0.723 3.604 0.449 6.29 -1.5 9.375 C-5.138 11.74 -8.735 11.818 -13 12 C-10 10 -10 10 -7.625 8.812 C-4.586 6.714 -3.016 4.483 -1.016 1.426 C-0.68 0.955 -0.345 0.485 0 0 Z " fill="#BCF2F2" transform="translate(455,507)"/>
<path d="M0 0 C-2.551 2.667 -3.914 3.933 -7.715 4.168 C-8.778 4.174 -9.842 4.181 -10.938 4.188 C-11.998 4.202 -13.059 4.216 -14.152 4.23 C-17 4 -17 4 -20 2 C-16.616 0.872 -14.387 1.369 -10.922 1.875 C-7.055 2.126 -4.19 -0.233 0 0 Z " fill="#09A5A8" transform="translate(561,463)"/>
<path d="M0 0 C2.908 1.315 5.006 2.734 7.25 5 C8.031 5.773 8.031 5.773 8.828 6.562 C10 8 10 8 10 10 C10.66 10 11.32 10 12 10 C13.478 12.957 13.06 15.742 13 19 C11.404 16.605 10.081 14.288 8.75 11.75 C6.306 7.292 3.427 3.745 0 0 Z " fill="#CAFBFC" transform="translate(560,400)"/>
<path d="M0 0 C0.66 0.66 1.32 1.32 2 2 C1.299 1.965 0.597 1.93 -0.125 1.895 C-6.625 1.709 -11.022 2.545 -17 5 C-17.99 4.67 -18.98 4.34 -20 4 C-13.423 -0.047 -7.707 -1.02 0 0 Z " fill="#23A7A3" transform="translate(552,396)"/>
<path d="M0 0 C0 0.99 0 1.98 0 3 C-7.154 7.345 -12.654 8.714 -21 8 C-21 7.67 -21 7.34 -21 7 C-20.394 6.902 -19.788 6.804 -19.164 6.703 C-8.837 5.046 -8.837 5.046 0 0 Z " fill="#39ACAB" transform="translate(573,587)"/>
<path d="M0 0 C2.792 2.553 3.49 4.224 4 8 C4.66 7.67 5.32 7.34 6 7 C7.108 10.325 6.845 12.622 6 16 C1.258 11.416 0.833 6.255 0 0 Z " fill="#1D9CA0" transform="translate(520,437)"/>
<path d="M0 0 C1.033 2.788 1.045 3.868 0.062 6.75 C-0.288 7.493 -0.639 8.235 -1 9 C-1.66 9 -2.32 9 -3 9 C-3.33 10.98 -3.66 12.96 -4 15 C-5.65 15.33 -7.3 15.66 -9 16 C-8.518 15.264 -8.036 14.528 -7.539 13.77 C-6.907 12.794 -6.276 11.818 -5.625 10.812 C-4.999 9.85 -4.372 8.887 -3.727 7.895 C-2.18 5.302 -1.025 2.831 0 0 Z " fill="#BDF7F5" transform="translate(505,444)"/>
<path d="M0 0 C0.99 0 1.98 0 3 0 C2.913 1.918 2.804 3.834 2.688 5.75 C2.629 6.817 2.571 7.885 2.512 8.984 C1.969 12.182 1.149 13.626 -1 16 C-1 13.03 -1 10.06 -1 7 C-0.34 7 0.32 7 1 7 C0.67 4.69 0.34 2.38 0 0 Z " fill="#E7F9FB" transform="translate(522,400)"/>
<path d="M0 0 C0.66 0.33 1.32 0.66 2 1 C0.638 2.471 -0.74 3.926 -2.125 5.375 C-2.891 6.187 -3.656 6.999 -4.445 7.836 C-7.224 10.19 -9.505 11.078 -13 12 C-12.34 10.68 -11.68 9.36 -11 8 C-10.01 8 -9.02 8 -8 8 C-7.67 7.34 -7.34 6.68 -7 6 C-6.34 6 -5.68 6 -5 6 C-4.918 5.381 -4.835 4.763 -4.75 4.125 C-4 2 -4 2 -2.062 0.688 C-1.382 0.461 -0.701 0.234 0 0 Z " fill="#E2FBFC" transform="translate(470,512)"/>
<path d="M0 0 C0.33 0.66 0.66 1.32 1 2 C-1.888 7.198 -4.121 9.144 -10 11 C-12.938 11.188 -12.938 11.188 -15 11 C-11.823 8.882 -8.545 7.165 -5.156 5.414 C-2.815 3.879 -1.539 2.318 0 0 Z " fill="#C1F5F5" transform="translate(607,508)"/>
<path d="M0 0 C0.99 0 1.98 0 3 0 C3 0.66 3 1.32 3 2 C3.66 2.33 4.32 2.66 5 3 C4.237 4.296 3.464 5.587 2.688 6.875 C2.258 7.594 1.829 8.314 1.387 9.055 C0 11 0 11 -3 13 C-2.691 12.34 -2.381 11.68 -2.062 11 C-0.75 7.295 -0.397 3.907 0 0 Z " fill="#19A09C" transform="translate(578,574)"/>
<path d="M0 0 C0.33 0 0.66 0 1 0 C1.33 4.62 1.66 9.24 2 14 C2.99 14.33 3.98 14.66 5 15 C5.33 16.65 5.66 18.3 6 20 C5.34 19.67 4.68 19.34 4 19 C4 18.34 4 17.68 4 17 C2.68 16.34 1.36 15.68 0 15 C0 10.05 0 5.1 0 0 Z " fill="#B0EFEC" transform="translate(553,497)"/>
<path d="M0 0 C0.66 0 1.32 0 2 0 C2 0.66 2 1.32 2 2 C2.66 2 3.32 2 4 2 C4 1.34 4 0.68 4 0 C4.99 0.33 5.98 0.66 7 1 C4.61 4.243 2.795 6.509 -1 8 C-1.931 5.394 -2.149 4.358 -1.062 1.75 C-0.712 1.173 -0.361 0.595 0 0 Z " fill="#18A99F" transform="translate(601,507)"/>
<path d="M0 0 C0.33 0 0.66 0 1 0 C1.135 2.939 1.234 5.872 1.312 8.812 C1.354 9.646 1.396 10.479 1.439 11.338 C1.486 13.659 1.475 15.727 1 18 C-1.395 20.137 -1.395 20.137 -4 21 C-4.66 20.67 -5.32 20.34 -6 20 C-4.788 19.004 -4.788 19.004 -3.551 17.988 C-0.481 14.392 -0.227 11.718 -0.188 7.188 C-0.162 6.495 -0.137 5.802 -0.111 5.088 C-0.053 3.393 -0.023 1.696 0 0 Z " fill="#4DB5B6" transform="translate(473,497)"/>
<path d="M0 0 C0.33 0 0.66 0 1 0 C1.766 5.973 -0.679 10.219 -4 15 C-4.99 15.495 -4.99 15.495 -6 16 C-6.188 13.625 -6.188 13.625 -6 11 C-5.01 10.34 -4.02 9.68 -3 9 C-1.992 6.821 -1.992 6.821 -1.312 4.375 C-1.061 3.558 -0.81 2.74 -0.551 1.898 C-0.369 1.272 -0.187 0.645 0 0 Z " fill="#1CA29B" transform="translate(614,490)"/>
<path d="M0 0 C1.787 2.68 2.932 5.031 4.125 8 C4.655 9.299 4.655 9.299 5.195 10.625 C6 13 6 13 6 16 C3.562 14.75 3.562 14.75 1 12 C0.246 8.008 0.07 4.057 0 0 Z " fill="#BDF4F3" transform="translate(410,491)"/>
<path d="M0 0 C3.625 0.375 3.625 0.375 7 1 C7 1.33 7 1.66 7 2 C6.031 2.309 5.061 2.619 4.062 2.938 C1.159 3.695 1.159 3.695 0 5 C-0.234 7.016 -0.413 9.038 -0.562 11.062 C-0.646 12.167 -0.73 13.272 -0.816 14.41 C-0.877 15.265 -0.938 16.119 -1 17 C-1.33 17 -1.66 17 -2 17 C-2.054 14.541 -2.094 12.084 -2.125 9.625 C-2.142 8.926 -2.159 8.228 -2.176 7.508 C-2.193 5.671 -2.103 3.834 -2 2 C-1.34 1.34 -0.68 0.68 0 0 Z " fill="#2BA3A0" transform="translate(499,471)"/>
<path d="M0 0 C0.33 0 0.66 0 1 0 C1.182 1.286 1.182 1.286 1.367 2.598 C2.239 8.543 3.138 14.281 5 20 C4.34 20 3.68 20 3 20 C-0.139 13.199 -0.335 7.434 0 0 Z " fill="#209A9B" transform="translate(568,489)"/>
<path d="M0 0 C-1.079 0.964 -2.163 1.921 -3.25 2.875 C-4.155 3.676 -4.155 3.676 -5.078 4.492 C-7.015 6.012 -8.698 7.125 -11 8 C-11.99 7.67 -12.98 7.34 -14 7 C-12.02 6.01 -10.04 5.02 -8 4 C-8 3.01 -8 2.02 -8 1 C-2.25 -1.125 -2.25 -1.125 0 0 Z " fill="#1EA29D" transform="translate(497,459)"/>
<path d="M0 0 C2.867 0.573 3.861 0.861 6 3 C4.02 5.64 2.04 8.28 0 11 C-0.33 9.68 -0.66 8.36 -1 7 C-0.34 7 0.32 7 1 7 C0.67 4.69 0.34 2.38 0 0 Z " fill="#DFFCFB" transform="translate(458,400)"/>
<path d="M0 0 C0 0.66 0 1.32 0 2 C1.32 2.33 2.64 2.66 4 3 C4 3.66 4 4.32 4 5 C-1.75 3.125 -1.75 3.125 -4 2 C-5.704 1.774 -7.413 1.591 -9.125 1.438 C-10.035 1.354 -10.945 1.27 -11.883 1.184 C-12.581 1.123 -13.28 1.062 -14 1 C-14 0.67 -14 0.34 -14 0 C-12.418 -0.196 -10.834 -0.382 -9.25 -0.562 C-8.368 -0.667 -7.487 -0.771 -6.578 -0.879 C-4.116 -0.995 -2.335 -0.736 0 0 Z " fill="#B3F2F0" transform="translate(556,395)"/>
<path d="M0 0 C0.33 0 0.66 0 1 0 C1.33 2.97 1.66 5.94 2 9 C1.01 9 0.02 9 -1 9 C-1.66 10.98 -2.32 12.96 -3 15 C-3.66 15 -4.32 15 -5 15 C-3.333 10 -1.667 5 0 0 Z " fill="#BFF8F7" transform="translate(573,442)"/>
<path d="M0 0 C0.99 0.33 1.98 0.66 3 1 C0.823 6.201 -1.607 8.681 -6 12 C-5.691 11.402 -5.381 10.804 -5.062 10.188 C-3.898 7.91 -3.898 7.91 -3 5 C-2.34 5 -1.68 5 -1 5 C-0.67 3.35 -0.34 1.7 0 0 Z " fill="#1B9F9B" transform="translate(567,451)"/>
<path d="M0 0 C2.915 1.074 4.778 1.778 7 4 C7.625 6.625 7.625 6.625 8 9 C3.717 6.486 1.355 4.877 0 0 Z " fill="#1DA9A8" transform="translate(489,398)"/>
<path d="M0 0 C0.536 0.536 1.072 1.072 1.625 1.625 C1.625 2.285 1.625 2.945 1.625 3.625 C0.821 3.316 0.016 3.006 -0.812 2.688 C-4.997 1.439 -9.038 0.991 -13.375 0.625 C-13.375 0.295 -13.375 -0.035 -13.375 -0.375 C-8.692 -1.477 -4.323 -2.503 0 0 Z " fill="#BAF3F2" transform="translate(491.375,395.375)"/>
<path d="M0 0 C4 5 4 5 8 10 C7.01 10.495 7.01 10.495 6 11 C6 10.34 6 9.68 6 9 C4.68 9 3.36 9 2 9 C0.142 5.865 -0.201 3.625 0 0 Z " fill="#CDF4F3" transform="translate(456,452)"/>
<path d="M0 0 C-5.379 3.548 -9.581 4.709 -16 5 C-13.529 3.352 -11.239 2.063 -8.562 0.812 C-7.801 0.448 -7.039 0.083 -6.254 -0.293 C-3.71 -1.091 -2.475 -0.885 0 0 Z " fill="#B5F4F2" transform="translate(498,588)"/>
<path d="M0 0 C0.66 0 1.32 0 2 0 C2 0.66 2 1.32 2 2 C3.65 1.67 5.3 1.34 7 1 C7 5 7 5 5 8 C4.164 6.856 3.331 5.71 2.5 4.562 C2.036 3.924 1.572 3.286 1.094 2.629 C0 1 0 1 0 0 Z " fill="#DDF6F8" transform="translate(448,466)"/>
<path d="M0 0 C0.66 0 1.32 0 2 0 C2.25 2.25 2.25 2.25 2 5 C0.125 7.312 0.125 7.312 -2 9 C-2.66 9 -3.32 9 -4 9 C-2.941 5.597 -1.991 2.986 0 0 Z " fill="#26A29E" transform="translate(575,470)"/>
<path d="M0 0 C-3.96 1.98 -7.92 3.96 -12 6 C-11.67 4.68 -11.34 3.36 -11 2 C-6.633 -0.39 -4.914 -1.229 0 0 Z " fill="#D3FAFA" transform="translate(591,459)"/>
<path d="M0 0 C2.615 2.366 4.39 4.86 6 8 C5.67 8.66 5.34 9.32 5 10 C3.062 9.5 3.062 9.5 1 8 C0.312 5.303 0.181 2.798 0 0 Z " fill="#C8F6F7" transform="translate(522,448)"/>
<path d="M0 0 C3.339 0.576 4.691 1.591 7 4 C7.99 4.33 8.98 4.66 10 5 C10 6.98 10 8.96 10 11 C9.402 10.216 8.804 9.433 8.188 8.625 C6.089 5.854 6.089 5.854 3 4 C3 3.34 3 2.68 3 2 C2.01 1.67 1.02 1.34 0 1 C0 0.67 0 0.34 0 0 Z " fill="#C6F7F5" transform="translate(493,399)"/>
<path d="M0 0 C0.66 0 1.32 0 2 0 C2.66 0.99 3.32 1.98 4 3 C4.99 3.33 5.98 3.66 7 4 C7 4.99 7 5.98 7 7 C7.99 7.33 8.98 7.66 10 8 C9.01 8.495 9.01 8.495 8 9 C3.962 7.654 2.527 5.347 0 2 C0 1.34 0 0.68 0 0 Z " fill="#239F99" transform="translate(458,454)"/>
<path d="M0 0 C-0.66 1.32 -1.32 2.64 -2 4 C-2.99 4 -3.98 4 -5 4 C-5.66 5.32 -6.32 6.64 -7 8 C-7.66 7.67 -8.32 7.34 -9 7 C-8.073 5.825 -7.133 4.66 -6.188 3.5 C-5.665 2.85 -5.143 2.201 -4.605 1.531 C-3 0 -3 0 0 0 Z " fill="#37A4A5" transform="translate(469,518)"/>
<path d="M0 0 C2.438 0.75 2.438 0.75 5 2 C5.812 4.125 5.812 4.125 6 6 C3.133 5.427 2.139 5.139 0 3 C0 2.01 0 1.02 0 0 Z " fill="#1BA8A5" transform="translate(442,463)"/>
<path d="M0 0 C0.33 0 0.66 0 1 0 C1 2.64 1 5.28 1 8 C-0.32 8.33 -1.64 8.66 -3 9 C-3 4.73 -2.363 3.403 0 0 Z " fill="#25AEAC" transform="translate(461,405)"/>
<path d="M0 0 C0.66 1.32 1.32 2.64 2 4 C-3.538 4.369 -3.538 4.369 -5.875 2.5 C-6.246 2.005 -6.617 1.51 -7 1 C-3.535 0.505 -3.535 0.505 0 0 Z " fill="#13A798" transform="translate(538,585)"/>
<path d="M0 0 C1 3 1 3 0.223 5.043 C-0.16 5.751 -0.543 6.458 -0.938 7.188 C-1.318 7.903 -1.698 8.618 -2.09 9.355 C-2.54 10.17 -2.54 10.17 -3 11 C-4.062 7.736 -4.075 7.173 -2.625 3.812 C-1 1 -1 1 0 0 Z " fill="#BDF4F5" transform="translate(449,537)"/>
<path d="M0 0 C2.12 2.615 4.131 5.196 6 8 C4.35 8 2.7 8 1 8 C0.67 5.36 0.34 2.72 0 0 Z " fill="#CBF6F6" transform="translate(570,507)"/>
<path d="M0 0 C0.33 0 0.66 0 1 0 C1.25 3.25 1.25 3.25 1 7 C-0.32 8.32 -1.64 9.64 -3 11 C-2.01 7.37 -1.02 3.74 0 0 Z " fill="#BAF2F1" transform="translate(459,496)"/>
<path d="M0 0 C0.66 0.33 1.32 0.66 2 1 C1.01 2.65 0.02 4.3 -1 6 C-1.99 5.67 -2.98 5.34 -4 5 C-3.688 3.062 -3.688 3.062 -3 1 C-2.01 0.67 -1.02 0.34 0 0 Z " fill="#07A39A" transform="translate(582,465)"/>
<path d="M0 0 C2.02 0.602 4.021 1.273 6 2 C6.33 2.66 6.66 3.32 7 4 C4.625 4.625 4.625 4.625 2 5 C1.34 4.34 0.68 3.68 0 3 C0 2.01 0 1.02 0 0 Z " fill="#D5FAFA" transform="translate(534,464)"/>
<path d="M0 0 C-2.395 2.899 -4.312 3.502 -8 4 C-8.33 3.34 -8.66 2.68 -9 2 C-5.865 0.142 -3.625 -0.201 0 0 Z " fill="#1F9F9B" transform="translate(561,463)"/>
<path d="M0 0 C0.66 0 1.32 0 2 0 C1.328 3.806 0.273 7.352 -1 11 C-1.33 11 -1.66 11 -2 11 C-2.286 3.571 -2.286 3.571 0 0 Z " fill="#C0F7F8" transform="translate(454,413)"/>
<path d="M0 0 C1.709 1.623 3.374 3.293 5 5 C5 5.66 5 6.32 5 7 C3.68 6.67 2.36 6.34 1 6 C0.67 4.02 0.34 2.04 0 0 Z " fill="#27A8A1" transform="translate(568,528)"/>
<path d="M0 0 C0.931 2.606 1.149 3.642 0.062 6.25 C-0.463 7.116 -0.463 7.116 -1 8 C-1.66 7.67 -2.32 7.34 -3 7 C-1.125 1.125 -1.125 1.125 0 0 Z " fill="#0DA3A1" transform="translate(570,444)"/>
<path d="M0 0 C1.65 1.65 3.3 3.3 5 5 C4.67 5.66 4.34 6.32 4 7 C2.68 6.34 1.36 5.68 0 5 C0 3.35 0 1.7 0 0 Z " fill="#CFF8F9" transform="translate(443,579)"/>
<path d="M0 0 C0.66 0.33 1.32 0.66 2 1 C0.515 4.465 0.515 4.465 -1 8 C-1.33 8 -1.66 8 -2 8 C-2 6.02 -2 4.04 -2 2 C-1.34 2 -0.68 2 0 2 C0 1.34 0 0.68 0 0 Z " fill="#C8F4F7" transform="translate(443,549)"/>
<path d="M0 0 C2.438 0.688 2.438 0.688 5 2 C5.812 4.625 5.812 4.625 6 7 C1.125 2.25 1.125 2.25 0 0 Z " fill="#C9FBFA" transform="translate(565,523)"/>
<path d="M0 0 C3.465 1.485 3.465 1.485 7 3 C6.67 3.66 6.34 4.32 6 5 C4.68 5 3.36 5 2 5 C1.34 3.35 0.68 1.7 0 0 Z " fill="#D5FAFB" transform="translate(464,463)"/>
<path d="M0 0 C1.65 0 3.3 0 5 0 C5 0.99 5 1.98 5 3 C3.02 3.33 1.04 3.66 -1 4 C-0.67 2.68 -0.34 1.36 0 0 Z " fill="#18ABAB" transform="translate(522,414)"/>
<path d="M0 0 C0.33 1.32 0.66 2.64 1 4 C-0.98 4.99 -2.96 5.98 -5 7 C-3.707 4.116 -2.341 2.128 0 0 Z " fill="#31ABA5" transform="translate(531,401)"/>
</svg>
