<svg xmlns="http://www.w3.org/2000/svg" width="800" height="400" viewBox="0 0 800 400"><title>VetConnect Global - Light Background Variant</title><defs><style>@import url(https://fonts.googleapis.com/css2?family=Plus+Jakarta+Sans:wght@700;800&amp;display=swap);@import url(https://fonts.googleapis.com/css2?family=Nunito:wght@600&amp;display=swap);</style></defs><g transform="translate(60 40)scale(.625)"><path fill="#2b7a9e" d="M256 340c-36 0-66-20-76-50s-5-50 15-70c15-15 35-20 61-20s46 5 61 20c20 20 25 40 15 70s-40 50-76 50"/><ellipse cx="195" cy="175" fill="#2b7a9e" rx="30" ry="38"/><ellipse cx="317" cy="175" fill="#2b7a9e" rx="30" ry="38"/><ellipse cx="148" cy="225" fill="#2b7a9e" rx="28" ry="35"/><ellipse cx="364" cy="225" fill="#2b7a9e" rx="28" ry="35"/><rect width="32" height="70" x="240" y="245" fill="#fff" rx="4"/><rect width="62" height="32" x="225" y="260" fill="#fff" rx="4"/></g><text x="370" y="215" fill="#1a2b3c" font-family="'Plus Jakarta Sans', sans-serif" font-size="72" font-weight="800">
    <tspan fill="#2b7a9e">Vet</tspan><tspan>Connect</tspan>
  </text><text x="372" y="260" fill="#4caf7d" font-family="'Nunito', sans-serif" font-size="22" font-weight="600">
    Cuidamos juntos, conectamos vidas
  </text></svg>